<mxfile host="app.diagrams.net" modified="2023-12-13T10:33:00.789Z" agent="Mozilla/5.0 (Windows NT 10.0; Win64; x64) AppleWebKit/537.36 (KHTML, like Gecko) Chrome/120.0.0.0 Safari/537.36" etag="xs0mgSipNxyYS3vaXc1w" version="22.1.8" type="github">
  <diagram name="Page-1" id="c37626ed-c26b-45fb-9056-f9ebc6bb27b6">
    <mxGraphModel dx="1221" dy="662" grid="1" gridSize="10" guides="1" tooltips="1" connect="1" arrows="1" fold="1" page="1" pageScale="1" pageWidth="1100" pageHeight="850" background="none" math="0" shadow="0">
      <root>
        <mxCell id="0" />
        <mxCell id="1" parent="0" />
        <mxCell id="N2jycIC2OeXAG85lpT5e-1" value="" style="rounded=1;whiteSpace=wrap;html=1;" vertex="1" parent="1">
          <mxGeometry x="30" y="180" width="1030" height="1280" as="geometry" />
        </mxCell>
        <mxCell id="N2jycIC2OeXAG85lpT5e-11" value="" style="rounded=1;whiteSpace=wrap;html=1;fillColor=#dae8fc;strokeColor=#6c8ebf;" vertex="1" parent="1">
          <mxGeometry x="68" y="240" width="960" height="320" as="geometry" />
        </mxCell>
        <mxCell id="N2jycIC2OeXAG85lpT5e-13" value="" style="rounded=1;whiteSpace=wrap;html=1;fillColor=#fff2cc;strokeColor=#d6b656;" vertex="1" parent="1">
          <mxGeometry x="68" y="660" width="965" height="320" as="geometry" />
        </mxCell>
        <mxCell id="N2jycIC2OeXAG85lpT5e-14" value="" style="rounded=1;whiteSpace=wrap;html=1;fillColor=#e1d5e7;strokeColor=#9673a6;" vertex="1" parent="1">
          <mxGeometry x="68" y="1080" width="965" height="320" as="geometry" />
        </mxCell>
        <mxCell id="N2jycIC2OeXAG85lpT5e-16" value="" style="rounded=1;whiteSpace=wrap;html=1;fillColor=#b1ddf0;strokeColor=#10739e;" vertex="1" parent="1">
          <mxGeometry x="110" y="270" width="550" height="260" as="geometry" />
        </mxCell>
        <mxCell id="N2jycIC2OeXAG85lpT5e-17" value="" style="shape=mxgraph.cisco.computers_and_peripherals.pc;sketch=0;html=1;pointerEvents=1;dashed=0;fillColor=#036897;strokeColor=#ffffff;strokeWidth=2;verticalLabelPosition=bottom;verticalAlign=top;align=center;outlineConnect=0;" vertex="1" parent="1">
          <mxGeometry x="120" y="290" width="78" height="70" as="geometry" />
        </mxCell>
        <mxCell id="N2jycIC2OeXAG85lpT5e-18" value="" style="shape=mxgraph.cisco.computers_and_peripherals.pc;sketch=0;html=1;pointerEvents=1;dashed=0;fillColor=#036897;strokeColor=#ffffff;strokeWidth=2;verticalLabelPosition=bottom;verticalAlign=top;align=center;outlineConnect=0;" vertex="1" parent="1">
          <mxGeometry x="120" y="430" width="78" height="70" as="geometry" />
        </mxCell>
        <mxCell id="N2jycIC2OeXAG85lpT5e-19" value="" style="shape=mxgraph.cisco.computers_and_peripherals.pc;sketch=0;html=1;pointerEvents=1;dashed=0;fillColor=#036897;strokeColor=#ffffff;strokeWidth=2;verticalLabelPosition=bottom;verticalAlign=top;align=center;outlineConnect=0;" vertex="1" parent="1">
          <mxGeometry x="250" y="290" width="78" height="70" as="geometry" />
        </mxCell>
        <mxCell id="N2jycIC2OeXAG85lpT5e-20" value="" style="shape=mxgraph.cisco.computers_and_peripherals.pc;sketch=0;html=1;pointerEvents=1;dashed=0;fillColor=#036897;strokeColor=#ffffff;strokeWidth=2;verticalLabelPosition=bottom;verticalAlign=top;align=center;outlineConnect=0;" vertex="1" parent="1">
          <mxGeometry x="250" y="430" width="78" height="70" as="geometry" />
        </mxCell>
        <mxCell id="N2jycIC2OeXAG85lpT5e-21" value="" style="shape=mxgraph.cisco.computers_and_peripherals.pc;sketch=0;html=1;pointerEvents=1;dashed=0;fillColor=#036897;strokeColor=#ffffff;strokeWidth=2;verticalLabelPosition=bottom;verticalAlign=top;align=center;outlineConnect=0;" vertex="1" parent="1">
          <mxGeometry x="410" y="430" width="78" height="70" as="geometry" />
        </mxCell>
        <mxCell id="N2jycIC2OeXAG85lpT5e-22" value="" style="shape=mxgraph.cisco.computers_and_peripherals.pc;sketch=0;html=1;pointerEvents=1;dashed=0;fillColor=#036897;strokeColor=#ffffff;strokeWidth=2;verticalLabelPosition=bottom;verticalAlign=top;align=center;outlineConnect=0;" vertex="1" parent="1">
          <mxGeometry x="410" y="290" width="78" height="70" as="geometry" />
        </mxCell>
        <mxCell id="N2jycIC2OeXAG85lpT5e-23" value="" style="shape=mxgraph.cisco.computers_and_peripherals.pc;sketch=0;html=1;pointerEvents=1;dashed=0;fillColor=#036897;strokeColor=#ffffff;strokeWidth=2;verticalLabelPosition=bottom;verticalAlign=top;align=center;outlineConnect=0;" vertex="1" parent="1">
          <mxGeometry x="550" y="290" width="78" height="70" as="geometry" />
        </mxCell>
        <mxCell id="N2jycIC2OeXAG85lpT5e-24" value="" style="shape=mxgraph.cisco.computers_and_peripherals.pc;sketch=0;html=1;pointerEvents=1;dashed=0;fillColor=#036897;strokeColor=#ffffff;strokeWidth=2;verticalLabelPosition=bottom;verticalAlign=top;align=center;outlineConnect=0;" vertex="1" parent="1">
          <mxGeometry x="550" y="430" width="78" height="70" as="geometry" />
        </mxCell>
        <mxCell id="N2jycIC2OeXAG85lpT5e-27" value="" style="rounded=1;whiteSpace=wrap;html=1;fillColor=#b1ddf0;strokeColor=#10739e;" vertex="1" parent="1">
          <mxGeometry x="700" y="270" width="300" height="260" as="geometry" />
        </mxCell>
        <mxCell id="N2jycIC2OeXAG85lpT5e-28" value="" style="shape=mxgraph.cisco.routers.router;sketch=0;html=1;pointerEvents=1;dashed=0;fillColor=#036897;strokeColor=#ffffff;strokeWidth=2;verticalLabelPosition=bottom;verticalAlign=top;align=center;outlineConnect=0;" vertex="1" parent="1">
          <mxGeometry x="811" y="368.5" width="78" height="53" as="geometry" />
        </mxCell>
        <mxCell id="N2jycIC2OeXAG85lpT5e-35" value="" style="line;strokeWidth=2;html=1;" vertex="1" parent="1">
          <mxGeometry x="160" y="395" width="650" height="10" as="geometry" />
        </mxCell>
        <mxCell id="N2jycIC2OeXAG85lpT5e-38" value="" style="line;strokeWidth=2;direction=south;html=1;" vertex="1" parent="1">
          <mxGeometry x="154" y="360" width="10" height="70" as="geometry" />
        </mxCell>
        <mxCell id="N2jycIC2OeXAG85lpT5e-43" value="" style="line;strokeWidth=2;direction=south;html=1;" vertex="1" parent="1">
          <mxGeometry x="280" y="360" width="10" height="70" as="geometry" />
        </mxCell>
        <mxCell id="N2jycIC2OeXAG85lpT5e-44" value="" style="line;strokeWidth=2;direction=south;html=1;" vertex="1" parent="1">
          <mxGeometry x="440" y="360" width="10" height="70" as="geometry" />
        </mxCell>
        <mxCell id="N2jycIC2OeXAG85lpT5e-45" value="" style="line;strokeWidth=2;direction=south;html=1;" vertex="1" parent="1">
          <mxGeometry x="580" y="360" width="10" height="70" as="geometry" />
        </mxCell>
        <mxCell id="N2jycIC2OeXAG85lpT5e-50" value="" style="shape=mxgraph.cisco.computers_and_peripherals.laptop;sketch=0;html=1;pointerEvents=1;dashed=0;fillColor=#036897;strokeColor=#ffffff;strokeWidth=2;verticalLabelPosition=bottom;verticalAlign=top;align=center;outlineConnect=0;" vertex="1" parent="1">
          <mxGeometry x="720" y="450" width="90" height="61" as="geometry" />
        </mxCell>
        <mxCell id="N2jycIC2OeXAG85lpT5e-51" value="" style="shape=mxgraph.cisco.computers_and_peripherals.laptop;sketch=0;html=1;pointerEvents=1;dashed=0;fillColor=#036897;strokeColor=#ffffff;strokeWidth=2;verticalLabelPosition=bottom;verticalAlign=top;align=center;outlineConnect=0;" vertex="1" parent="1">
          <mxGeometry x="889" y="450" width="90" height="61" as="geometry" />
        </mxCell>
        <mxCell id="N2jycIC2OeXAG85lpT5e-52" value="" style="endArrow=none;dashed=1;html=1;dashPattern=1 3;strokeWidth=2;rounded=0;edgeStyle=orthogonalEdgeStyle;" edge="1" parent="1" source="N2jycIC2OeXAG85lpT5e-50" target="N2jycIC2OeXAG85lpT5e-28">
          <mxGeometry width="50" height="50" relative="1" as="geometry">
            <mxPoint x="570" y="400" as="sourcePoint" />
            <mxPoint x="620" y="350" as="targetPoint" />
          </mxGeometry>
        </mxCell>
        <mxCell id="N2jycIC2OeXAG85lpT5e-53" value="" style="endArrow=none;dashed=1;html=1;dashPattern=1 3;strokeWidth=2;rounded=0;edgeStyle=orthogonalEdgeStyle;" edge="1" parent="1" source="N2jycIC2OeXAG85lpT5e-51" target="N2jycIC2OeXAG85lpT5e-28">
          <mxGeometry width="50" height="50" relative="1" as="geometry">
            <mxPoint x="570" y="400" as="sourcePoint" />
            <mxPoint x="620" y="350" as="targetPoint" />
          </mxGeometry>
        </mxCell>
        <mxCell id="N2jycIC2OeXAG85lpT5e-54" value="" style="image;html=1;image=img/lib/clip_art/networking/Switch_128x128.png" vertex="1" parent="1">
          <mxGeometry x="1200" y="355" width="80" height="80" as="geometry" />
        </mxCell>
        <mxCell id="N2jycIC2OeXAG85lpT5e-55" value="" style="endArrow=none;html=1;rounded=0;edgeStyle=orthogonalEdgeStyle;entryX=0;entryY=0.5;entryDx=0;entryDy=0;" edge="1" parent="1" source="N2jycIC2OeXAG85lpT5e-28" target="N2jycIC2OeXAG85lpT5e-54">
          <mxGeometry width="50" height="50" relative="1" as="geometry">
            <mxPoint x="890" y="490" as="sourcePoint" />
            <mxPoint x="940" y="440" as="targetPoint" />
          </mxGeometry>
        </mxCell>
        <mxCell id="N2jycIC2OeXAG85lpT5e-56" value="Lab 2" style="text;html=1;strokeColor=none;fillColor=none;align=center;verticalAlign=middle;whiteSpace=wrap;rounded=0;fontSize=16;" vertex="1" parent="1">
          <mxGeometry x="340" y="270" width="60" height="30" as="geometry" />
        </mxCell>
        <mxCell id="N2jycIC2OeXAG85lpT5e-57" value="Class 2" style="text;html=1;strokeColor=none;fillColor=none;align=center;verticalAlign=middle;whiteSpace=wrap;rounded=0;fontSize=16;" vertex="1" parent="1">
          <mxGeometry x="820" y="270" width="60" height="30" as="geometry" />
        </mxCell>
        <mxCell id="N2jycIC2OeXAG85lpT5e-58" value="PC" style="text;html=1;strokeColor=none;fillColor=none;align=center;verticalAlign=middle;whiteSpace=wrap;rounded=0;" vertex="1" parent="1">
          <mxGeometry x="180" y="350" width="60" height="30" as="geometry" />
        </mxCell>
        <mxCell id="N2jycIC2OeXAG85lpT5e-59" value="PC" style="text;html=1;strokeColor=none;fillColor=none;align=center;verticalAlign=middle;whiteSpace=wrap;rounded=0;" vertex="1" parent="1">
          <mxGeometry x="180" y="490" width="60" height="30" as="geometry" />
        </mxCell>
        <mxCell id="N2jycIC2OeXAG85lpT5e-60" value="PC" style="text;html=1;strokeColor=none;fillColor=none;align=center;verticalAlign=middle;whiteSpace=wrap;rounded=0;" vertex="1" parent="1">
          <mxGeometry x="320" y="350" width="60" height="30" as="geometry" />
        </mxCell>
        <mxCell id="N2jycIC2OeXAG85lpT5e-61" value="PC" style="text;html=1;strokeColor=none;fillColor=none;align=center;verticalAlign=middle;whiteSpace=wrap;rounded=0;" vertex="1" parent="1">
          <mxGeometry x="320" y="490" width="60" height="30" as="geometry" />
        </mxCell>
        <mxCell id="N2jycIC2OeXAG85lpT5e-62" value="PC" style="text;html=1;strokeColor=none;fillColor=none;align=center;verticalAlign=middle;whiteSpace=wrap;rounded=0;" vertex="1" parent="1">
          <mxGeometry x="470" y="490" width="60" height="30" as="geometry" />
        </mxCell>
        <mxCell id="N2jycIC2OeXAG85lpT5e-63" value="PC" style="text;html=1;strokeColor=none;fillColor=none;align=center;verticalAlign=middle;whiteSpace=wrap;rounded=0;" vertex="1" parent="1">
          <mxGeometry x="470" y="350" width="60" height="30" as="geometry" />
        </mxCell>
        <mxCell id="N2jycIC2OeXAG85lpT5e-64" value="PC" style="text;html=1;strokeColor=none;fillColor=none;align=center;verticalAlign=middle;whiteSpace=wrap;rounded=0;" vertex="1" parent="1">
          <mxGeometry x="610" y="350" width="60" height="30" as="geometry" />
        </mxCell>
        <mxCell id="N2jycIC2OeXAG85lpT5e-65" value="PC" style="text;html=1;strokeColor=none;fillColor=none;align=center;verticalAlign=middle;whiteSpace=wrap;rounded=0;" vertex="1" parent="1">
          <mxGeometry x="610" y="490" width="60" height="30" as="geometry" />
        </mxCell>
        <mxCell id="N2jycIC2OeXAG85lpT5e-66" style="edgeStyle=orthogonalEdgeStyle;rounded=0;orthogonalLoop=1;jettySize=auto;html=1;exitX=0.5;exitY=1;exitDx=0;exitDy=0;" edge="1" parent="1" source="N2jycIC2OeXAG85lpT5e-58" target="N2jycIC2OeXAG85lpT5e-58">
          <mxGeometry relative="1" as="geometry" />
        </mxCell>
        <mxCell id="N2jycIC2OeXAG85lpT5e-67" value="" style="rounded=1;whiteSpace=wrap;html=1;fillColor=#ffcc99;strokeColor=#36393d;" vertex="1" parent="1">
          <mxGeometry x="110" y="685" width="550" height="270" as="geometry" />
        </mxCell>
        <mxCell id="N2jycIC2OeXAG85lpT5e-68" value="" style="rounded=1;whiteSpace=wrap;html=1;" vertex="1" parent="1">
          <mxGeometry x="700" y="685" width="310" height="265" as="geometry" />
        </mxCell>
      </root>
    </mxGraphModel>
  </diagram>
</mxfile>
